<svg id="visual" viewBox="0 400 2400 163" width="2400" height="163" xmlns="http://www.w3.org/2000/svg"
    xmlns:xlink="http://www.w3.org/1999/xlink" version="1.1">
    <path
        d="M0 350L57.2 361.8C114.3 373.7 228.7 397.3 343 399.2C457.3 401 571.7 381 686 376.8C800.3 372.7 914.7 384.3 1028.8 394C1143 403.7 1257 411.3 1371.2 414.7C1485.3 418 1599.7 417 1714 419.5C1828.3 422 1942.7 428 2057 429.3C2171.3 430.7 2285.7 427.3 2342.8 425.7L2400 424L2400 601L2342.8 601C2285.7 601 2171.3 601 2057 601C1942.7 601 1828.3 601 1714 601C1599.7 601 1485.3 601 1371.2 601C1257 601 1143 601 1028.8 601C914.7 601 800.3 601 686 601C571.7 601 457.3 601 343 601C228.7 601 114.3 601 57.2 601L0 601Z"
        fill="#e3d98d"></path>
    <path
        d="M0 461L57.2 463.5C114.3 466 228.7 471 343 469.2C457.3 467.3 571.7 458.7 686 450.5C800.3 442.3 914.7 434.7 1028.8 425.8C1143 417 1257 407 1371.2 404.7C1485.3 402.3 1599.7 407.7 1714 415.7C1828.3 423.7 1942.7 434.3 2057 439.8C2171.3 445.3 2285.7 445.7 2342.8 445.8L2400 446L2400 601L2342.8 601C2285.7 601 2171.3 601 2057 601C1942.7 601 1828.3 601 1714 601C1599.7 601 1485.3 601 1371.2 601C1257 601 1143 601 1028.8 601C914.7 601 800.3 601 686 601C571.7 601 457.3 601 343 601C228.7 601 114.3 601 57.2 601L0 601Z"
        fill="#bca76e"></path>
    <path
        d="M0 472L57.2 471.3C114.3 470.7 228.7 469.3 343 466.3C457.3 463.3 571.7 458.7 686 460.3C800.3 462 914.7 470 1028.8 470.2C1143 470.3 1257 462.7 1371.2 468.2C1485.3 473.7 1599.7 492.3 1714 498.5C1828.3 504.7 1942.7 498.3 2057 491.2C2171.3 484 2285.7 476 2342.8 472L2400 468L2400 601L2342.8 601C2285.7 601 2171.3 601 2057 601C1942.7 601 1828.3 601 1714 601C1599.7 601 1485.3 601 1371.2 601C1257 601 1143 601 1028.8 601C914.7 601 800.3 601 686 601C571.7 601 457.3 601 343 601C228.7 601 114.3 601 57.2 601L0 601Z"
        fill="#917953"></path>
    <path
        d="M0 520L57.2 519.8C114.3 519.7 228.7 519.3 343 519.2C457.3 519 571.7 519 686 517.5C800.3 516 914.7 513 1028.8 510.7C1143 508.3 1257 506.7 1371.2 507.3C1485.3 508 1599.7 511 1714 509.3C1828.3 507.7 1942.7 501.3 2057 497.3C2171.3 493.3 2285.7 491.7 2342.8 490.8L2400 490L2400 601L2342.8 601C2285.7 601 2171.3 601 2057 601C1942.7 601 1828.3 601 1714 601C1599.7 601 1485.3 601 1371.2 601C1257 601 1143 601 1028.8 601C914.7 601 800.3 601 686 601C571.7 601 457.3 601 343 601C228.7 601 114.3 601 57.2 601L0 601Z"
        fill="#654f3a"></path>
    <path
        d="M0 560L57.2 562C114.3 564 228.7 568 343 566.8C457.3 565.7 571.7 559.3 686 553.5C800.3 547.7 914.7 542.3 1028.8 545.3C1143 548.3 1257 559.7 1371.2 560.8C1485.3 562 1599.7 553 1714 548.2C1828.3 543.3 1942.7 542.7 2057 543.3C2171.3 544 2285.7 546 2342.8 547L2400 548L2400 601L2342.8 601C2285.7 601 2171.3 601 2057 601C1942.7 601 1828.3 601 1714 601C1599.7 601 1485.3 601 1371.2 601C1257 601 1143 601 1028.8 601C914.7 601 800.3 601 686 601C571.7 601 457.3 601 343 601C228.7 601 114.3 601 57.2 601L0 601Z"
        fill="#2C2723"></path>
</svg>