<svg id="visual" viewBox="0 0 2400 600" width="2400" height="600" xmlns="http://www.w3.org/2000/svg"
    xmlns:xlink="http://www.w3.org/1999/xlink" version="1.1">
    <path
        d="M0 182L57.2 164.3C114.3 146.7 228.7 111.3 343 108.3C457.3 105.3 571.7 134.7 686 140C800.3 145.3 914.7 126.7 1028.8 125.3C1143 124 1257 140 1371.2 148.7C1485.3 157.3 1599.7 158.7 1714 148.7C1828.3 138.7 1942.7 117.3 2057 119C2171.3 120.7 2285.7 145.3 2342.8 157.7L2400 170L2400 0L2342.8 0C2285.7 0 2171.3 0 2057 0C1942.7 0 1828.3 0 1714 0C1599.7 0 1485.3 0 1371.2 0C1257 0 1143 0 1028.8 0C914.7 0 800.3 0 686 0C571.7 0 457.3 0 343 0C228.7 0 114.3 0 57.2 0L0 0Z"
        fill="#2C2723"></path>
    <path
        d="M0 75L57.2 83.5C114.3 92 228.7 109 343 120.7C457.3 132.3 571.7 138.7 686 127.2C800.3 115.7 914.7 86.3 1028.8 89.3C1143 92.3 1257 127.7 1371.2 143C1485.3 158.3 1599.7 153.7 1714 137.3C1828.3 121 1942.7 93 2057 96C2171.3 99 2285.7 133 2342.8 150L2400 167L2400 0L2342.8 0C2285.7 0 2171.3 0 2057 0C1942.7 0 1828.3 0 1714 0C1599.7 0 1485.3 0 1371.2 0C1257 0 1143 0 1028.8 0C914.7 0 800.3 0 686 0C571.7 0 457.3 0 343 0C228.7 0 114.3 0 57.2 0L0 0Z"
        fill="#654f3a"></path>
    <path
        d="M0 119L57.2 120.7C114.3 122.3 228.7 125.7 343 115.3C457.3 105 571.7 81 686 74.2C800.3 67.3 914.7 77.7 1028.8 91C1143 104.3 1257 120.7 1371.2 122.8C1485.3 125 1599.7 113 1714 109.2C1828.3 105.3 1942.7 109.7 2057 99.3C2171.3 89 2285.7 64 2342.8 51.5L2400 39L2400 0L2342.8 0C2285.7 0 2171.3 0 2057 0C1942.7 0 1828.3 0 1714 0C1599.7 0 1485.3 0 1371.2 0C1257 0 1143 0 1028.8 0C914.7 0 800.3 0 686 0C571.7 0 457.3 0 343 0C228.7 0 114.3 0 57.2 0L0 0Z"
        fill="#917953"></path>
    <path
        d="M0 60L57.2 65.5C114.3 71 228.7 82 343 87.2C457.3 92.3 571.7 91.7 686 80.7C800.3 69.7 914.7 48.3 1028.8 42.2C1143 36 1257 45 1371.2 50.3C1485.3 55.7 1599.7 57.3 1714 52.7C1828.3 48 1942.7 37 2057 44.5C2171.3 52 2285.7 78 2342.8 91L2400 104L2400 0L2342.8 0C2285.7 0 2171.3 0 2057 0C1942.7 0 1828.3 0 1714 0C1599.7 0 1485.3 0 1371.2 0C1257 0 1143 0 1028.8 0C914.7 0 800.3 0 686 0C571.7 0 457.3 0 343 0C228.7 0 114.3 0 57.2 0L0 0Z"
        fill="#bca76e"></path>
    <path
        d="M0 48L57.2 45C114.3 42 228.7 36 343 39.3C457.3 42.7 571.7 55.3 686 56.3C800.3 57.3 914.7 46.7 1028.8 41.5C1143 36.3 1257 36.7 1371.2 35.7C1485.3 34.7 1599.7 32.3 1714 38.3C1828.3 44.3 1942.7 58.7 2057 64.3C2171.3 70 2285.7 67 2342.8 65.5L2400 64L2400 0L2342.8 0C2285.7 0 2171.3 0 2057 0C1942.7 0 1828.3 0 1714 0C1599.7 0 1485.3 0 1371.2 0C1257 0 1143 0 1028.8 0C914.7 0 800.3 0 686 0C571.7 0 457.3 0 343 0C228.7 0 114.3 0 57.2 0L0 0Z"
        fill="#e3d98d"></path>
</svg>